<svg width="225" height="225" viewBox="0 0 225 225" fill="none" xmlns="http://www.w3.org/2000/svg">
<path d="M163.125 112.5C147.618 112.5 135 99.8824 135 84.375C135 68.8676 147.618 56.25 163.125 56.25C178.632 56.25 191.25 68.8676 191.25 84.375C191.25 99.8824 178.632 112.5 163.125 112.5ZM39.375 67.5H118.125C121.233 67.5 123.75 70.0172 123.75 73.125V123.75H202.5V50.625C202.5 47.5172 205.017 45 208.125 45H219.375C222.483 45 225 47.5172 225 50.625V174.375C225 177.483 222.483 180 219.375 180H208.125C205.017 180 202.5 177.483 202.5 174.375V157.5H22.5V174.375C22.5 177.483 19.9828 180 16.875 180H5.625C2.51718 180 0 177.483 0 174.375V106.875C0 85.1273 17.6273 67.5 39.375 67.5Z" fill="black" fill-opacity="0.3"/>
</svg>
