<svg width="225" height="225" viewBox="0 0 225 225" fill="none" xmlns="http://www.w3.org/2000/svg">
<path d="M210.938 216.211V225H14.0625V216.211C14.0625 213.299 16.4237 210.938 19.3359 210.938H28.125V52.7344C28.125 46.9094 32.8469 42.1875 38.6719 42.1875H77.3438V10.5469C77.3438 4.72192 82.0657 0 87.8906 0H137.109C142.934 0 147.656 4.72192 147.656 10.5469V42.1875H186.328C192.153 42.1875 196.875 46.9094 196.875 52.7344V210.938H205.664C208.576 210.938 210.938 213.299 210.938 216.211ZM149.414 84.375H131.836C128.924 84.375 126.562 86.7362 126.562 89.6484V107.227C126.562 110.139 128.924 112.5 131.836 112.5H149.414C152.326 112.5 154.688 110.139 154.688 107.227V89.6484C154.688 86.7362 152.326 84.375 149.414 84.375ZM75.5859 112.5H93.1641C96.0763 112.5 98.4375 110.139 98.4375 107.227V89.6484C98.4375 86.7362 96.0763 84.375 93.1641 84.375H75.5859C72.6737 84.375 70.3125 86.7362 70.3125 89.6484V107.227C70.3125 110.139 72.6737 112.5 75.5859 112.5ZM121.289 168.75H103.711C100.799 168.75 98.4375 171.111 98.4375 174.023V210.938H126.562V174.023C126.562 171.111 124.201 168.75 121.289 168.75ZM149.414 126.562H131.836C128.924 126.562 126.562 128.924 126.562 131.836V149.414C126.562 152.326 128.924 154.688 131.836 154.688H149.414C152.326 154.688 154.688 152.326 154.688 149.414V131.836C154.688 128.924 152.326 126.562 149.414 126.562ZM98.4375 131.836C98.4375 128.924 96.0763 126.562 93.1641 126.562H75.5859C72.6737 126.562 70.3125 128.924 70.3125 131.836V149.414C70.3125 152.326 72.6737 154.688 75.5859 154.688H93.1641C96.0763 154.688 98.4375 152.326 98.4375 149.414V131.836ZM94.043 42.1875H105.469V53.6133C105.469 54.3126 105.747 54.9832 106.241 55.4777C106.736 55.9722 107.406 56.25 108.105 56.25H116.895C117.594 56.25 118.264 55.9722 118.759 55.4777C119.253 54.9832 119.531 54.3126 119.531 53.6133V42.1875H130.957C131.656 42.1875 132.327 41.9097 132.821 41.4152C133.316 40.9207 133.594 40.2501 133.594 39.5508V30.7617C133.594 30.0624 133.316 29.3918 132.821 28.8973C132.327 28.4028 131.656 28.125 130.957 28.125H119.531V16.6992C119.531 15.9999 119.253 15.3293 118.759 14.8348C118.264 14.3403 117.594 14.0625 116.895 14.0625H108.105C107.406 14.0625 106.736 14.3403 106.241 14.8348C105.747 15.3293 105.469 15.9999 105.469 16.6992V28.125H94.043C93.3437 28.125 92.673 28.4028 92.1785 28.8973C91.684 29.3918 91.4062 30.0624 91.4062 30.7617V39.5508C91.4062 40.2501 91.684 40.9207 92.1785 41.4152C92.673 41.9097 93.3437 42.1875 94.043 42.1875Z" fill="black" fill-opacity="0.3"/>
</svg>
