<svg width="224" height="224" viewBox="0 0 224 224" fill="none" xmlns="http://www.w3.org/2000/svg">
<path d="M112 112C142.931 112 168 86.9313 168 56C168 25.0688 142.931 0 112 0C81.0687 0 56 25.0688 56 56C56 86.9313 81.0687 112 112 112ZM59.5 185.5C59.5 191.319 64.1813 196 70 196C75.8187 196 80.5 191.319 80.5 185.5C80.5 179.681 75.8187 175 70 175C64.1813 175 59.5 179.681 59.5 185.5ZM154 126.263V147.7C169.969 150.938 182 165.113 182 182V200.244C182 203.569 179.637 206.456 176.356 207.113L162.269 209.912C160.387 210.306 158.55 209.081 158.156 207.156L156.8 200.287C156.406 198.406 157.631 196.525 159.556 196.175L168 194.469V182C168 154.525 126 153.519 126 182.831V194.512L134.444 196.219C136.325 196.613 137.55 198.45 137.2 200.331L135.844 207.2C135.45 209.081 133.613 210.306 131.731 209.956L118.081 208.119C114.625 207.638 112.044 204.706 112.044 201.162V182C112.044 165.113 124.075 150.981 140.044 147.7V127.925C139.081 128.231 138.119 128.406 137.156 128.756C129.281 131.512 120.838 133.044 112.044 133.044C103.25 133.044 94.8063 131.512 86.9313 128.756C83.6937 127.619 80.4125 126.919 77.0438 126.481V162.181C87.15 165.2 94.5438 174.475 94.5438 185.544C94.5438 199.062 83.5625 210.044 70.0438 210.044C56.525 210.044 45.5437 199.062 45.5437 185.544C45.5437 174.475 52.9375 165.2 63.0438 162.181V127.006C35.2188 131.688 14 155.662 14 184.8V204.4C14 215.206 22.7937 224 33.6 224H190.4C201.206 224 210 215.206 210 204.4V184.8C210 153.3 185.15 127.794 154 126.263Z" fill="black" fill-opacity="0.3"/>
</svg>
